G04 EAGLE Gerber RS-274X export*
G75*
%MOMM*%
%FSLAX34Y34*%
%LPD*%
%IN*%
%IPPOS*%
%AMOC8*
5,1,8,0,0,1.08239X$1,22.5*%
G01*
%ADD10C,0.254000*%


D10*
X0Y0D02*
X1000000Y0D01*
X1000000Y750000D01*
X0Y750000D01*
X0Y0D01*
X40400Y24864D02*
X40324Y23796D01*
X40171Y22735D01*
X39943Y21688D01*
X39641Y20660D01*
X39267Y19656D01*
X38822Y18681D01*
X38308Y17741D01*
X37729Y16840D01*
X37087Y15982D01*
X36385Y15172D01*
X35628Y14415D01*
X34818Y13713D01*
X33960Y13071D01*
X33059Y12492D01*
X32119Y11978D01*
X31144Y11533D01*
X30140Y11159D01*
X29112Y10857D01*
X28065Y10629D01*
X27004Y10476D01*
X25936Y10400D01*
X24864Y10400D01*
X23796Y10476D01*
X22735Y10629D01*
X21688Y10857D01*
X20660Y11159D01*
X19656Y11533D01*
X18681Y11978D01*
X17741Y12492D01*
X16840Y13071D01*
X15982Y13713D01*
X15172Y14415D01*
X14415Y15172D01*
X13713Y15982D01*
X13071Y16840D01*
X12492Y17741D01*
X11978Y18681D01*
X11533Y19656D01*
X11159Y20660D01*
X10857Y21688D01*
X10629Y22735D01*
X10476Y23796D01*
X10400Y24864D01*
X10400Y25936D01*
X10476Y27004D01*
X10629Y28065D01*
X10857Y29112D01*
X11159Y30140D01*
X11533Y31144D01*
X11978Y32119D01*
X12492Y33059D01*
X13071Y33960D01*
X13713Y34818D01*
X14415Y35628D01*
X15172Y36385D01*
X15982Y37087D01*
X16840Y37729D01*
X17741Y38308D01*
X18681Y38822D01*
X19656Y39267D01*
X20660Y39641D01*
X21688Y39943D01*
X22735Y40171D01*
X23796Y40324D01*
X24864Y40400D01*
X25936Y40400D01*
X27004Y40324D01*
X28065Y40171D01*
X29112Y39943D01*
X30140Y39641D01*
X31144Y39267D01*
X32119Y38822D01*
X33059Y38308D01*
X33960Y37729D01*
X34818Y37087D01*
X35628Y36385D01*
X36385Y35628D01*
X37087Y34818D01*
X37729Y33960D01*
X38308Y33059D01*
X38822Y32119D01*
X39267Y31144D01*
X39641Y30140D01*
X39943Y29112D01*
X40171Y28065D01*
X40324Y27004D01*
X40400Y25936D01*
X40400Y24864D01*
X989600Y24864D02*
X989524Y23796D01*
X989371Y22735D01*
X989143Y21688D01*
X988841Y20660D01*
X988467Y19656D01*
X988022Y18681D01*
X987508Y17741D01*
X986929Y16840D01*
X986287Y15982D01*
X985585Y15172D01*
X984828Y14415D01*
X984018Y13713D01*
X983160Y13071D01*
X982259Y12492D01*
X981319Y11978D01*
X980344Y11533D01*
X979340Y11159D01*
X978312Y10857D01*
X977265Y10629D01*
X976204Y10476D01*
X975136Y10400D01*
X974064Y10400D01*
X972996Y10476D01*
X971935Y10629D01*
X970888Y10857D01*
X969860Y11159D01*
X968856Y11533D01*
X967881Y11978D01*
X966941Y12492D01*
X966040Y13071D01*
X965182Y13713D01*
X964372Y14415D01*
X963615Y15172D01*
X962913Y15982D01*
X962271Y16840D01*
X961692Y17741D01*
X961178Y18681D01*
X960733Y19656D01*
X960359Y20660D01*
X960057Y21688D01*
X959829Y22735D01*
X959676Y23796D01*
X959600Y24864D01*
X959600Y25936D01*
X959676Y27004D01*
X959829Y28065D01*
X960057Y29112D01*
X960359Y30140D01*
X960733Y31144D01*
X961178Y32119D01*
X961692Y33059D01*
X962271Y33960D01*
X962913Y34818D01*
X963615Y35628D01*
X964372Y36385D01*
X965182Y37087D01*
X966040Y37729D01*
X966941Y38308D01*
X967881Y38822D01*
X968856Y39267D01*
X969860Y39641D01*
X970888Y39943D01*
X971935Y40171D01*
X972996Y40324D01*
X974064Y40400D01*
X975136Y40400D01*
X976204Y40324D01*
X977265Y40171D01*
X978312Y39943D01*
X979340Y39641D01*
X980344Y39267D01*
X981319Y38822D01*
X982259Y38308D01*
X983160Y37729D01*
X984018Y37087D01*
X984828Y36385D01*
X985585Y35628D01*
X986287Y34818D01*
X986929Y33960D01*
X987508Y33059D01*
X988022Y32119D01*
X988467Y31144D01*
X988841Y30140D01*
X989143Y29112D01*
X989371Y28065D01*
X989524Y27004D01*
X989600Y25936D01*
X989600Y24864D01*
X989600Y724064D02*
X989524Y722996D01*
X989371Y721935D01*
X989143Y720888D01*
X988841Y719860D01*
X988467Y718856D01*
X988022Y717881D01*
X987508Y716941D01*
X986929Y716040D01*
X986287Y715182D01*
X985585Y714372D01*
X984828Y713615D01*
X984018Y712913D01*
X983160Y712271D01*
X982259Y711692D01*
X981319Y711178D01*
X980344Y710733D01*
X979340Y710359D01*
X978312Y710057D01*
X977265Y709829D01*
X976204Y709676D01*
X975136Y709600D01*
X974064Y709600D01*
X972996Y709676D01*
X971935Y709829D01*
X970888Y710057D01*
X969860Y710359D01*
X968856Y710733D01*
X967881Y711178D01*
X966941Y711692D01*
X966040Y712271D01*
X965182Y712913D01*
X964372Y713615D01*
X963615Y714372D01*
X962913Y715182D01*
X962271Y716040D01*
X961692Y716941D01*
X961178Y717881D01*
X960733Y718856D01*
X960359Y719860D01*
X960057Y720888D01*
X959829Y721935D01*
X959676Y722996D01*
X959600Y724064D01*
X959600Y725136D01*
X959676Y726204D01*
X959829Y727265D01*
X960057Y728312D01*
X960359Y729340D01*
X960733Y730344D01*
X961178Y731319D01*
X961692Y732259D01*
X962271Y733160D01*
X962913Y734018D01*
X963615Y734828D01*
X964372Y735585D01*
X965182Y736287D01*
X966040Y736929D01*
X966941Y737508D01*
X967881Y738022D01*
X968856Y738467D01*
X969860Y738841D01*
X970888Y739143D01*
X971935Y739371D01*
X972996Y739524D01*
X974064Y739600D01*
X975136Y739600D01*
X976204Y739524D01*
X977265Y739371D01*
X978312Y739143D01*
X979340Y738841D01*
X980344Y738467D01*
X981319Y738022D01*
X982259Y737508D01*
X983160Y736929D01*
X984018Y736287D01*
X984828Y735585D01*
X985585Y734828D01*
X986287Y734018D01*
X986929Y733160D01*
X987508Y732259D01*
X988022Y731319D01*
X988467Y730344D01*
X988841Y729340D01*
X989143Y728312D01*
X989371Y727265D01*
X989524Y726204D01*
X989600Y725136D01*
X989600Y724064D01*
X40400Y724064D02*
X40324Y722996D01*
X40171Y721935D01*
X39943Y720888D01*
X39641Y719860D01*
X39267Y718856D01*
X38822Y717881D01*
X38308Y716941D01*
X37729Y716040D01*
X37087Y715182D01*
X36385Y714372D01*
X35628Y713615D01*
X34818Y712913D01*
X33960Y712271D01*
X33059Y711692D01*
X32119Y711178D01*
X31144Y710733D01*
X30140Y710359D01*
X29112Y710057D01*
X28065Y709829D01*
X27004Y709676D01*
X25936Y709600D01*
X24864Y709600D01*
X23796Y709676D01*
X22735Y709829D01*
X21688Y710057D01*
X20660Y710359D01*
X19656Y710733D01*
X18681Y711178D01*
X17741Y711692D01*
X16840Y712271D01*
X15982Y712913D01*
X15172Y713615D01*
X14415Y714372D01*
X13713Y715182D01*
X13071Y716040D01*
X12492Y716941D01*
X11978Y717881D01*
X11533Y718856D01*
X11159Y719860D01*
X10857Y720888D01*
X10629Y721935D01*
X10476Y722996D01*
X10400Y724064D01*
X10400Y725136D01*
X10476Y726204D01*
X10629Y727265D01*
X10857Y728312D01*
X11159Y729340D01*
X11533Y730344D01*
X11978Y731319D01*
X12492Y732259D01*
X13071Y733160D01*
X13713Y734018D01*
X14415Y734828D01*
X15172Y735585D01*
X15982Y736287D01*
X16840Y736929D01*
X17741Y737508D01*
X18681Y738022D01*
X19656Y738467D01*
X20660Y738841D01*
X21688Y739143D01*
X22735Y739371D01*
X23796Y739524D01*
X24864Y739600D01*
X25936Y739600D01*
X27004Y739524D01*
X28065Y739371D01*
X29112Y739143D01*
X30140Y738841D01*
X31144Y738467D01*
X32119Y738022D01*
X33059Y737508D01*
X33960Y736929D01*
X34818Y736287D01*
X35628Y735585D01*
X36385Y734828D01*
X37087Y734018D01*
X37729Y733160D01*
X38308Y732259D01*
X38822Y731319D01*
X39267Y730344D01*
X39641Y729340D01*
X39943Y728312D01*
X40171Y727265D01*
X40324Y726204D01*
X40400Y725136D01*
X40400Y724064D01*
M02*
