G04 EAGLE Gerber RS-274X export*
G75*
%MOMM*%
%FSLAX34Y34*%
%LPD*%
%INSilkscreen Top*%
%IPPOS*%
%AMOC8*
5,1,8,0,0,1.08239X$1,22.5*%
G01*
%ADD10C,0.200000*%
%ADD11C,0.101600*%
%ADD12C,0.127000*%
%ADD13C,0.203200*%


D10*
X101650Y337250D02*
X101650Y413400D01*
X203150Y413400D02*
X203150Y348600D01*
D11*
X94742Y370692D02*
X83058Y370692D01*
X94742Y369394D02*
X94742Y371990D01*
X83058Y371990D02*
X83058Y369394D01*
X94742Y379154D02*
X94742Y381750D01*
X94742Y379154D02*
X94740Y379055D01*
X94734Y378955D01*
X94725Y378856D01*
X94712Y378758D01*
X94695Y378660D01*
X94674Y378562D01*
X94649Y378466D01*
X94621Y378371D01*
X94589Y378277D01*
X94554Y378184D01*
X94515Y378092D01*
X94472Y378002D01*
X94427Y377914D01*
X94377Y377827D01*
X94325Y377743D01*
X94269Y377660D01*
X94211Y377580D01*
X94149Y377502D01*
X94084Y377427D01*
X94016Y377354D01*
X93946Y377284D01*
X93873Y377216D01*
X93798Y377151D01*
X93720Y377089D01*
X93640Y377031D01*
X93557Y376975D01*
X93473Y376923D01*
X93386Y376873D01*
X93298Y376828D01*
X93208Y376785D01*
X93116Y376746D01*
X93023Y376711D01*
X92929Y376679D01*
X92834Y376651D01*
X92738Y376626D01*
X92640Y376605D01*
X92542Y376588D01*
X92444Y376575D01*
X92345Y376566D01*
X92245Y376560D01*
X92146Y376558D01*
X92146Y376557D02*
X85654Y376557D01*
X85555Y376559D01*
X85455Y376565D01*
X85356Y376574D01*
X85258Y376587D01*
X85160Y376605D01*
X85062Y376625D01*
X84966Y376650D01*
X84870Y376678D01*
X84776Y376710D01*
X84683Y376745D01*
X84592Y376784D01*
X84502Y376827D01*
X84413Y376872D01*
X84327Y376922D01*
X84242Y376974D01*
X84160Y377030D01*
X84080Y377089D01*
X84002Y377150D01*
X83926Y377215D01*
X83853Y377283D01*
X83783Y377353D01*
X83715Y377426D01*
X83650Y377502D01*
X83589Y377580D01*
X83530Y377660D01*
X83474Y377742D01*
X83422Y377827D01*
X83373Y377913D01*
X83327Y378002D01*
X83284Y378092D01*
X83245Y378183D01*
X83210Y378276D01*
X83178Y378370D01*
X83150Y378466D01*
X83125Y378562D01*
X83105Y378660D01*
X83087Y378758D01*
X83074Y378856D01*
X83065Y378955D01*
X83059Y379054D01*
X83057Y379154D01*
X83058Y379154D02*
X83058Y381750D01*
X85654Y386115D02*
X83058Y389361D01*
X94742Y389361D01*
X94742Y392606D02*
X94742Y386115D01*
D12*
X127000Y584200D02*
X127000Y670177D01*
X127000Y584200D02*
X228600Y584200D01*
X228600Y670177D01*
X127000Y670177D01*
D13*
X106350Y62700D02*
X93650Y62700D01*
X106350Y62700D02*
X112700Y56350D01*
X112700Y43650D02*
X106350Y37300D01*
X112700Y56350D02*
X119050Y62700D01*
X131750Y62700D01*
X138100Y56350D01*
X138100Y43650D02*
X131750Y37300D01*
X119050Y37300D01*
X112700Y43650D01*
X87300Y43650D02*
X87300Y56350D01*
X93650Y62700D01*
X87300Y43650D02*
X93650Y37300D01*
X106350Y37300D01*
X138100Y43650D02*
X138100Y56350D01*
D12*
X90983Y71463D02*
X90983Y80353D01*
X90983Y71463D02*
X90981Y71363D01*
X90975Y71264D01*
X90965Y71164D01*
X90952Y71066D01*
X90934Y70967D01*
X90913Y70870D01*
X90888Y70774D01*
X90859Y70678D01*
X90826Y70584D01*
X90790Y70491D01*
X90750Y70400D01*
X90706Y70310D01*
X90659Y70222D01*
X90609Y70136D01*
X90555Y70052D01*
X90498Y69970D01*
X90438Y69891D01*
X90374Y69813D01*
X90308Y69739D01*
X90239Y69667D01*
X90167Y69598D01*
X90093Y69532D01*
X90015Y69468D01*
X89936Y69408D01*
X89854Y69351D01*
X89770Y69297D01*
X89684Y69247D01*
X89596Y69200D01*
X89506Y69156D01*
X89415Y69116D01*
X89322Y69080D01*
X89228Y69047D01*
X89132Y69018D01*
X89036Y68993D01*
X88939Y68972D01*
X88840Y68954D01*
X88742Y68941D01*
X88642Y68931D01*
X88543Y68925D01*
X88443Y68923D01*
X87173Y68923D01*
X96392Y77813D02*
X99567Y80353D01*
X99567Y68923D01*
X96392Y68923D02*
X102742Y68923D01*
D13*
X321310Y236220D02*
X364490Y236220D01*
X364490Y297180D02*
X321310Y297180D01*
X312420Y276860D02*
X312420Y256720D01*
X373380Y256420D02*
X373380Y276860D01*
X325120Y266700D02*
X325125Y267136D01*
X325141Y267572D01*
X325168Y268008D01*
X325206Y268443D01*
X325254Y268876D01*
X325312Y269309D01*
X325382Y269740D01*
X325462Y270169D01*
X325552Y270596D01*
X325653Y271020D01*
X325764Y271442D01*
X325886Y271861D01*
X326017Y272277D01*
X326159Y272690D01*
X326311Y273099D01*
X326473Y273504D01*
X326645Y273905D01*
X326827Y274302D01*
X327018Y274694D01*
X327219Y275081D01*
X327430Y275464D01*
X327650Y275841D01*
X327879Y276212D01*
X328116Y276578D01*
X328363Y276938D01*
X328619Y277292D01*
X328883Y277639D01*
X329156Y277980D01*
X329437Y278313D01*
X329726Y278640D01*
X330023Y278960D01*
X330328Y279272D01*
X330640Y279577D01*
X330960Y279874D01*
X331287Y280163D01*
X331620Y280444D01*
X331961Y280717D01*
X332308Y280981D01*
X332662Y281237D01*
X333022Y281484D01*
X333388Y281721D01*
X333759Y281950D01*
X334136Y282170D01*
X334519Y282381D01*
X334906Y282582D01*
X335298Y282773D01*
X335695Y282955D01*
X336096Y283127D01*
X336501Y283289D01*
X336910Y283441D01*
X337323Y283583D01*
X337739Y283714D01*
X338158Y283836D01*
X338580Y283947D01*
X339004Y284048D01*
X339431Y284138D01*
X339860Y284218D01*
X340291Y284288D01*
X340724Y284346D01*
X341157Y284394D01*
X341592Y284432D01*
X342028Y284459D01*
X342464Y284475D01*
X342900Y284480D01*
X343336Y284475D01*
X343772Y284459D01*
X344208Y284432D01*
X344643Y284394D01*
X345076Y284346D01*
X345509Y284288D01*
X345940Y284218D01*
X346369Y284138D01*
X346796Y284048D01*
X347220Y283947D01*
X347642Y283836D01*
X348061Y283714D01*
X348477Y283583D01*
X348890Y283441D01*
X349299Y283289D01*
X349704Y283127D01*
X350105Y282955D01*
X350502Y282773D01*
X350894Y282582D01*
X351281Y282381D01*
X351664Y282170D01*
X352041Y281950D01*
X352412Y281721D01*
X352778Y281484D01*
X353138Y281237D01*
X353492Y280981D01*
X353839Y280717D01*
X354180Y280444D01*
X354513Y280163D01*
X354840Y279874D01*
X355160Y279577D01*
X355472Y279272D01*
X355777Y278960D01*
X356074Y278640D01*
X356363Y278313D01*
X356644Y277980D01*
X356917Y277639D01*
X357181Y277292D01*
X357437Y276938D01*
X357684Y276578D01*
X357921Y276212D01*
X358150Y275841D01*
X358370Y275464D01*
X358581Y275081D01*
X358782Y274694D01*
X358973Y274302D01*
X359155Y273905D01*
X359327Y273504D01*
X359489Y273099D01*
X359641Y272690D01*
X359783Y272277D01*
X359914Y271861D01*
X360036Y271442D01*
X360147Y271020D01*
X360248Y270596D01*
X360338Y270169D01*
X360418Y269740D01*
X360488Y269309D01*
X360546Y268876D01*
X360594Y268443D01*
X360632Y268008D01*
X360659Y267572D01*
X360675Y267136D01*
X360680Y266700D01*
X360675Y266264D01*
X360659Y265828D01*
X360632Y265392D01*
X360594Y264957D01*
X360546Y264524D01*
X360488Y264091D01*
X360418Y263660D01*
X360338Y263231D01*
X360248Y262804D01*
X360147Y262380D01*
X360036Y261958D01*
X359914Y261539D01*
X359783Y261123D01*
X359641Y260710D01*
X359489Y260301D01*
X359327Y259896D01*
X359155Y259495D01*
X358973Y259098D01*
X358782Y258706D01*
X358581Y258319D01*
X358370Y257936D01*
X358150Y257559D01*
X357921Y257188D01*
X357684Y256822D01*
X357437Y256462D01*
X357181Y256108D01*
X356917Y255761D01*
X356644Y255420D01*
X356363Y255087D01*
X356074Y254760D01*
X355777Y254440D01*
X355472Y254128D01*
X355160Y253823D01*
X354840Y253526D01*
X354513Y253237D01*
X354180Y252956D01*
X353839Y252683D01*
X353492Y252419D01*
X353138Y252163D01*
X352778Y251916D01*
X352412Y251679D01*
X352041Y251450D01*
X351664Y251230D01*
X351281Y251019D01*
X350894Y250818D01*
X350502Y250627D01*
X350105Y250445D01*
X349704Y250273D01*
X349299Y250111D01*
X348890Y249959D01*
X348477Y249817D01*
X348061Y249686D01*
X347642Y249564D01*
X347220Y249453D01*
X346796Y249352D01*
X346369Y249262D01*
X345940Y249182D01*
X345509Y249112D01*
X345076Y249054D01*
X344643Y249006D01*
X344208Y248968D01*
X343772Y248941D01*
X343336Y248925D01*
X342900Y248920D01*
X342464Y248925D01*
X342028Y248941D01*
X341592Y248968D01*
X341157Y249006D01*
X340724Y249054D01*
X340291Y249112D01*
X339860Y249182D01*
X339431Y249262D01*
X339004Y249352D01*
X338580Y249453D01*
X338158Y249564D01*
X337739Y249686D01*
X337323Y249817D01*
X336910Y249959D01*
X336501Y250111D01*
X336096Y250273D01*
X335695Y250445D01*
X335298Y250627D01*
X334906Y250818D01*
X334519Y251019D01*
X334136Y251230D01*
X333759Y251450D01*
X333388Y251679D01*
X333022Y251916D01*
X332662Y252163D01*
X332308Y252419D01*
X331961Y252683D01*
X331620Y252956D01*
X331287Y253237D01*
X330960Y253526D01*
X330640Y253823D01*
X330328Y254128D01*
X330023Y254440D01*
X329726Y254760D01*
X329437Y255087D01*
X329156Y255420D01*
X328883Y255761D01*
X328619Y256108D01*
X328363Y256462D01*
X328116Y256822D01*
X327879Y257188D01*
X327650Y257559D01*
X327430Y257936D01*
X327219Y258319D01*
X327018Y258706D01*
X326827Y259098D01*
X326645Y259495D01*
X326473Y259896D01*
X326311Y260301D01*
X326159Y260710D01*
X326017Y261123D01*
X325886Y261539D01*
X325764Y261958D01*
X325653Y262380D01*
X325552Y262804D01*
X325462Y263231D01*
X325382Y263660D01*
X325312Y264091D01*
X325254Y264524D01*
X325206Y264957D01*
X325168Y265392D01*
X325141Y265828D01*
X325125Y266264D01*
X325120Y266700D01*
X507840Y322850D02*
X551340Y322850D01*
X551340Y439150D01*
X507840Y439150D01*
X507840Y322850D01*
D10*
X713200Y348160D02*
X713200Y382460D01*
X713200Y348160D01*
X737899Y345421D02*
X738380Y345677D01*
X738853Y345944D01*
X739321Y346223D01*
X739781Y346513D01*
X740234Y346814D01*
X740680Y347127D01*
X741118Y347449D01*
X741548Y347783D01*
X741969Y348127D01*
X742383Y348481D01*
X742787Y348844D01*
X743183Y349218D01*
X743569Y349601D01*
X743946Y349993D01*
X744313Y350395D01*
X744671Y350805D01*
X745018Y351224D01*
X745355Y351651D01*
X745682Y352086D01*
X745998Y352529D01*
X746303Y352979D01*
X746597Y353437D01*
X746880Y353902D01*
X747151Y354373D01*
X747411Y354851D01*
X747660Y355335D01*
X747896Y355825D01*
X748121Y356321D01*
X748333Y356822D01*
X748533Y357328D01*
X748721Y357839D01*
X748896Y358354D01*
X749059Y358873D01*
X749209Y359396D01*
X749346Y359922D01*
X749471Y360452D01*
X749582Y360985D01*
X749681Y361520D01*
X749766Y362057D01*
X749839Y362596D01*
X749898Y363137D01*
X749945Y363679D01*
X749978Y364222D01*
X749997Y364766D01*
X750004Y365310D01*
X749997Y365854D01*
X749978Y366398D01*
X749945Y366941D01*
X749898Y367483D01*
X749839Y368024D01*
X749766Y368563D01*
X749681Y369100D01*
X749582Y369635D01*
X749471Y370168D01*
X749346Y370698D01*
X749209Y371224D01*
X749059Y371747D01*
X748896Y372266D01*
X748721Y372781D01*
X748533Y373292D01*
X748333Y373798D01*
X748121Y374299D01*
X747896Y374795D01*
X747660Y375285D01*
X747411Y375769D01*
X747151Y376247D01*
X746880Y376718D01*
X746597Y377183D01*
X746303Y377641D01*
X745998Y378091D01*
X745682Y378534D01*
X745355Y378969D01*
X745018Y379396D01*
X744671Y379815D01*
X744313Y380225D01*
X743946Y380627D01*
X743569Y381019D01*
X743183Y381402D01*
X742787Y381776D01*
X742383Y382139D01*
X741969Y382493D01*
X741548Y382837D01*
X741118Y383171D01*
X740680Y383493D01*
X740234Y383806D01*
X739781Y384107D01*
X739321Y384397D01*
X738853Y384676D01*
X738380Y384943D01*
X737899Y385199D01*
X725810Y392630D02*
X725812Y392668D01*
X725818Y392706D01*
X725827Y392744D01*
X725841Y392780D01*
X725858Y392814D01*
X725878Y392847D01*
X725902Y392878D01*
X725928Y392905D01*
X725957Y392930D01*
X725989Y392952D01*
X726023Y392971D01*
X726058Y392986D01*
X726095Y392998D01*
X726132Y393006D01*
X726171Y393010D01*
X726209Y393010D01*
X726248Y393006D01*
X726285Y392998D01*
X726322Y392986D01*
X726357Y392971D01*
X726391Y392952D01*
X726423Y392930D01*
X726452Y392905D01*
X726478Y392878D01*
X726502Y392847D01*
X726522Y392814D01*
X726539Y392780D01*
X726553Y392744D01*
X726562Y392706D01*
X726568Y392668D01*
X726570Y392630D01*
X726568Y392592D01*
X726562Y392554D01*
X726553Y392516D01*
X726539Y392480D01*
X726522Y392446D01*
X726502Y392413D01*
X726478Y392382D01*
X726452Y392355D01*
X726423Y392330D01*
X726391Y392308D01*
X726357Y392289D01*
X726322Y392274D01*
X726285Y392262D01*
X726248Y392254D01*
X726209Y392250D01*
X726171Y392250D01*
X726132Y392254D01*
X726095Y392262D01*
X726058Y392274D01*
X726023Y392289D01*
X725989Y392308D01*
X725957Y392330D01*
X725928Y392355D01*
X725902Y392382D01*
X725878Y392413D01*
X725858Y392446D01*
X725841Y392480D01*
X725827Y392516D01*
X725818Y392554D01*
X725812Y392592D01*
X725810Y392630D01*
D11*
X759414Y360243D02*
X764606Y360243D01*
X759414Y360242D02*
X759301Y360244D01*
X759188Y360250D01*
X759075Y360260D01*
X758962Y360274D01*
X758850Y360291D01*
X758739Y360313D01*
X758629Y360338D01*
X758519Y360368D01*
X758411Y360401D01*
X758304Y360438D01*
X758198Y360478D01*
X758094Y360523D01*
X757991Y360571D01*
X757890Y360622D01*
X757791Y360677D01*
X757694Y360735D01*
X757599Y360797D01*
X757506Y360862D01*
X757416Y360930D01*
X757328Y361001D01*
X757242Y361076D01*
X757159Y361153D01*
X757079Y361233D01*
X757002Y361316D01*
X756927Y361402D01*
X756856Y361490D01*
X756788Y361580D01*
X756723Y361673D01*
X756661Y361768D01*
X756603Y361865D01*
X756548Y361964D01*
X756497Y362065D01*
X756449Y362168D01*
X756404Y362272D01*
X756364Y362378D01*
X756327Y362485D01*
X756294Y362593D01*
X756264Y362703D01*
X756239Y362813D01*
X756217Y362924D01*
X756200Y363036D01*
X756186Y363149D01*
X756176Y363262D01*
X756170Y363375D01*
X756168Y363488D01*
X756170Y363601D01*
X756176Y363714D01*
X756186Y363827D01*
X756200Y363940D01*
X756217Y364052D01*
X756239Y364163D01*
X756264Y364273D01*
X756294Y364383D01*
X756327Y364491D01*
X756364Y364598D01*
X756404Y364704D01*
X756449Y364808D01*
X756497Y364911D01*
X756548Y365012D01*
X756603Y365111D01*
X756661Y365208D01*
X756723Y365303D01*
X756788Y365396D01*
X756856Y365486D01*
X756927Y365574D01*
X757002Y365660D01*
X757079Y365743D01*
X757159Y365823D01*
X757242Y365900D01*
X757328Y365975D01*
X757416Y366046D01*
X757506Y366114D01*
X757599Y366179D01*
X757694Y366241D01*
X757791Y366299D01*
X757890Y366354D01*
X757991Y366405D01*
X758094Y366453D01*
X758198Y366498D01*
X758304Y366538D01*
X758411Y366575D01*
X758519Y366608D01*
X758629Y366638D01*
X758739Y366663D01*
X758850Y366685D01*
X758962Y366702D01*
X759075Y366716D01*
X759188Y366726D01*
X759301Y366732D01*
X759414Y366734D01*
X764606Y366734D01*
X764719Y366732D01*
X764832Y366726D01*
X764945Y366716D01*
X765058Y366702D01*
X765170Y366685D01*
X765281Y366663D01*
X765391Y366638D01*
X765501Y366608D01*
X765609Y366575D01*
X765716Y366538D01*
X765822Y366498D01*
X765926Y366453D01*
X766029Y366405D01*
X766130Y366354D01*
X766229Y366299D01*
X766326Y366241D01*
X766421Y366179D01*
X766514Y366114D01*
X766604Y366046D01*
X766692Y365975D01*
X766778Y365900D01*
X766861Y365823D01*
X766941Y365743D01*
X767018Y365660D01*
X767093Y365574D01*
X767164Y365486D01*
X767232Y365396D01*
X767297Y365303D01*
X767359Y365208D01*
X767417Y365111D01*
X767472Y365012D01*
X767523Y364911D01*
X767571Y364808D01*
X767616Y364704D01*
X767656Y364598D01*
X767693Y364491D01*
X767726Y364383D01*
X767756Y364273D01*
X767781Y364163D01*
X767803Y364052D01*
X767820Y363940D01*
X767834Y363827D01*
X767844Y363714D01*
X767850Y363601D01*
X767852Y363488D01*
X767850Y363375D01*
X767844Y363262D01*
X767834Y363149D01*
X767820Y363036D01*
X767803Y362924D01*
X767781Y362813D01*
X767756Y362703D01*
X767726Y362593D01*
X767693Y362485D01*
X767656Y362378D01*
X767616Y362272D01*
X767571Y362168D01*
X767523Y362065D01*
X767472Y361964D01*
X767417Y361865D01*
X767359Y361768D01*
X767297Y361673D01*
X767232Y361580D01*
X767164Y361490D01*
X767093Y361402D01*
X767018Y361316D01*
X766941Y361233D01*
X766861Y361153D01*
X766778Y361076D01*
X766692Y361001D01*
X766604Y360930D01*
X766514Y360862D01*
X766421Y360797D01*
X766326Y360735D01*
X766229Y360677D01*
X766130Y360622D01*
X766029Y360571D01*
X765926Y360523D01*
X765822Y360478D01*
X765716Y360438D01*
X765609Y360401D01*
X765501Y360368D01*
X765391Y360338D01*
X765281Y360313D01*
X765170Y360291D01*
X765058Y360274D01*
X764945Y360260D01*
X764832Y360250D01*
X764719Y360244D01*
X764606Y360242D01*
X765256Y365435D02*
X767852Y368032D01*
X758764Y371386D02*
X756168Y374632D01*
X767852Y374632D01*
X767852Y377877D02*
X767852Y371386D01*
D13*
X863440Y369300D02*
X906940Y369300D01*
X863440Y369300D02*
X863440Y253000D01*
X906940Y253000D01*
X906940Y369300D01*
X580750Y62700D02*
X568050Y62700D01*
X580750Y62700D02*
X587100Y56350D01*
X587100Y43650D02*
X580750Y37300D01*
X542650Y62700D02*
X536300Y56350D01*
X542650Y62700D02*
X555350Y62700D01*
X561700Y56350D01*
X561700Y43650D02*
X555350Y37300D01*
X542650Y37300D01*
X536300Y43650D01*
X561700Y56350D02*
X568050Y62700D01*
X561700Y43650D02*
X568050Y37300D01*
X580750Y37300D01*
X504550Y62700D02*
X491850Y62700D01*
X504550Y62700D02*
X510900Y56350D01*
X510900Y43650D02*
X504550Y37300D01*
X510900Y56350D02*
X517250Y62700D01*
X529950Y62700D01*
X536300Y56350D01*
X536300Y43650D02*
X529950Y37300D01*
X517250Y37300D01*
X510900Y43650D01*
X466450Y62700D02*
X460100Y56350D01*
X466450Y62700D02*
X479150Y62700D01*
X485500Y56350D01*
X485500Y43650D02*
X479150Y37300D01*
X466450Y37300D01*
X460100Y43650D01*
X485500Y56350D02*
X491850Y62700D01*
X485500Y43650D02*
X491850Y37300D01*
X504550Y37300D01*
X428350Y62700D02*
X415650Y62700D01*
X428350Y62700D02*
X434700Y56350D01*
X434700Y43650D02*
X428350Y37300D01*
X434700Y56350D02*
X441050Y62700D01*
X453750Y62700D01*
X460100Y56350D01*
X460100Y43650D02*
X453750Y37300D01*
X441050Y37300D01*
X434700Y43650D01*
X409300Y43650D02*
X409300Y56350D01*
X415650Y62700D01*
X409300Y43650D02*
X415650Y37300D01*
X428350Y37300D01*
X593450Y62700D02*
X606150Y62700D01*
X612500Y56350D01*
X612500Y43650D01*
X606150Y37300D01*
X587100Y56350D02*
X593450Y62700D01*
X587100Y43650D02*
X593450Y37300D01*
X606150Y37300D01*
D12*
X412983Y71463D02*
X412983Y80353D01*
X412983Y71463D02*
X412981Y71363D01*
X412975Y71264D01*
X412965Y71164D01*
X412952Y71066D01*
X412934Y70967D01*
X412913Y70870D01*
X412888Y70774D01*
X412859Y70678D01*
X412826Y70584D01*
X412790Y70491D01*
X412750Y70400D01*
X412706Y70310D01*
X412659Y70222D01*
X412609Y70136D01*
X412555Y70052D01*
X412498Y69970D01*
X412438Y69891D01*
X412374Y69813D01*
X412308Y69739D01*
X412239Y69667D01*
X412167Y69598D01*
X412093Y69532D01*
X412015Y69468D01*
X411936Y69408D01*
X411854Y69351D01*
X411770Y69297D01*
X411684Y69247D01*
X411596Y69200D01*
X411506Y69156D01*
X411415Y69116D01*
X411322Y69080D01*
X411228Y69047D01*
X411132Y69018D01*
X411036Y68993D01*
X410939Y68972D01*
X410840Y68954D01*
X410742Y68941D01*
X410642Y68931D01*
X410543Y68925D01*
X410443Y68923D01*
X409173Y68923D01*
X418392Y68923D02*
X421567Y68923D01*
X421678Y68925D01*
X421788Y68931D01*
X421899Y68940D01*
X422009Y68954D01*
X422118Y68971D01*
X422227Y68992D01*
X422335Y69017D01*
X422442Y69046D01*
X422548Y69078D01*
X422653Y69114D01*
X422756Y69154D01*
X422858Y69197D01*
X422959Y69244D01*
X423058Y69295D01*
X423155Y69348D01*
X423249Y69405D01*
X423342Y69466D01*
X423433Y69529D01*
X423522Y69596D01*
X423608Y69666D01*
X423691Y69739D01*
X423773Y69814D01*
X423851Y69892D01*
X423926Y69974D01*
X423999Y70057D01*
X424069Y70143D01*
X424136Y70232D01*
X424199Y70323D01*
X424260Y70416D01*
X424317Y70510D01*
X424370Y70607D01*
X424421Y70706D01*
X424468Y70807D01*
X424511Y70909D01*
X424551Y71012D01*
X424587Y71117D01*
X424619Y71223D01*
X424648Y71330D01*
X424673Y71438D01*
X424694Y71547D01*
X424711Y71656D01*
X424725Y71766D01*
X424734Y71877D01*
X424740Y71987D01*
X424742Y72098D01*
X424740Y72209D01*
X424734Y72319D01*
X424725Y72430D01*
X424711Y72540D01*
X424694Y72649D01*
X424673Y72758D01*
X424648Y72866D01*
X424619Y72973D01*
X424587Y73079D01*
X424551Y73184D01*
X424511Y73287D01*
X424468Y73389D01*
X424421Y73490D01*
X424370Y73589D01*
X424317Y73685D01*
X424260Y73780D01*
X424199Y73873D01*
X424136Y73964D01*
X424069Y74053D01*
X423999Y74139D01*
X423926Y74222D01*
X423851Y74304D01*
X423773Y74382D01*
X423691Y74457D01*
X423608Y74530D01*
X423522Y74600D01*
X423433Y74667D01*
X423342Y74730D01*
X423249Y74791D01*
X423155Y74848D01*
X423058Y74901D01*
X422959Y74952D01*
X422858Y74999D01*
X422756Y75042D01*
X422653Y75082D01*
X422548Y75118D01*
X422442Y75150D01*
X422335Y75179D01*
X422227Y75204D01*
X422118Y75225D01*
X422009Y75242D01*
X421899Y75256D01*
X421788Y75265D01*
X421678Y75271D01*
X421567Y75273D01*
X422202Y80353D02*
X418392Y80353D01*
X422202Y80353D02*
X422302Y80351D01*
X422401Y80345D01*
X422501Y80335D01*
X422599Y80322D01*
X422698Y80304D01*
X422795Y80283D01*
X422891Y80258D01*
X422987Y80229D01*
X423081Y80196D01*
X423174Y80160D01*
X423265Y80120D01*
X423355Y80076D01*
X423443Y80029D01*
X423529Y79979D01*
X423613Y79925D01*
X423695Y79868D01*
X423774Y79808D01*
X423852Y79744D01*
X423926Y79678D01*
X423998Y79609D01*
X424067Y79537D01*
X424133Y79463D01*
X424197Y79385D01*
X424257Y79306D01*
X424314Y79224D01*
X424368Y79140D01*
X424418Y79054D01*
X424465Y78966D01*
X424509Y78876D01*
X424549Y78785D01*
X424585Y78692D01*
X424618Y78598D01*
X424647Y78502D01*
X424672Y78406D01*
X424693Y78309D01*
X424711Y78210D01*
X424724Y78112D01*
X424734Y78012D01*
X424740Y77913D01*
X424742Y77813D01*
X424740Y77713D01*
X424734Y77614D01*
X424724Y77514D01*
X424711Y77416D01*
X424693Y77317D01*
X424672Y77220D01*
X424647Y77124D01*
X424618Y77028D01*
X424585Y76934D01*
X424549Y76841D01*
X424509Y76750D01*
X424465Y76660D01*
X424418Y76572D01*
X424368Y76486D01*
X424314Y76402D01*
X424257Y76320D01*
X424197Y76241D01*
X424133Y76163D01*
X424067Y76089D01*
X423998Y76017D01*
X423926Y75948D01*
X423852Y75882D01*
X423774Y75818D01*
X423695Y75758D01*
X423613Y75701D01*
X423529Y75647D01*
X423443Y75597D01*
X423355Y75550D01*
X423265Y75506D01*
X423174Y75466D01*
X423081Y75430D01*
X422987Y75397D01*
X422891Y75368D01*
X422795Y75343D01*
X422698Y75322D01*
X422599Y75304D01*
X422501Y75291D01*
X422401Y75281D01*
X422302Y75275D01*
X422202Y75273D01*
X419662Y75273D01*
D13*
X893650Y62700D02*
X906350Y62700D01*
X912700Y56350D01*
X912700Y43650D02*
X906350Y37300D01*
X912700Y56350D02*
X919050Y62700D01*
X931750Y62700D01*
X938100Y56350D01*
X938100Y43650D02*
X931750Y37300D01*
X919050Y37300D01*
X912700Y43650D01*
X887300Y43650D02*
X887300Y56350D01*
X893650Y62700D01*
X887300Y43650D02*
X893650Y37300D01*
X906350Y37300D01*
X938100Y43650D02*
X938100Y56350D01*
D12*
X890983Y71463D02*
X890983Y80353D01*
X890983Y71463D02*
X890981Y71363D01*
X890975Y71264D01*
X890965Y71164D01*
X890952Y71066D01*
X890934Y70967D01*
X890913Y70870D01*
X890888Y70774D01*
X890859Y70678D01*
X890826Y70584D01*
X890790Y70491D01*
X890750Y70400D01*
X890706Y70310D01*
X890659Y70222D01*
X890609Y70136D01*
X890555Y70052D01*
X890498Y69970D01*
X890438Y69891D01*
X890374Y69813D01*
X890308Y69739D01*
X890239Y69667D01*
X890167Y69598D01*
X890093Y69532D01*
X890015Y69468D01*
X889936Y69408D01*
X889854Y69351D01*
X889770Y69297D01*
X889684Y69247D01*
X889596Y69200D01*
X889506Y69156D01*
X889415Y69116D01*
X889322Y69080D01*
X889228Y69047D01*
X889132Y69018D01*
X889036Y68993D01*
X888939Y68972D01*
X888840Y68954D01*
X888742Y68941D01*
X888642Y68931D01*
X888543Y68925D01*
X888443Y68923D01*
X887173Y68923D01*
X899884Y80354D02*
X899988Y80352D01*
X900093Y80346D01*
X900197Y80337D01*
X900300Y80324D01*
X900403Y80306D01*
X900505Y80286D01*
X900607Y80261D01*
X900707Y80233D01*
X900807Y80201D01*
X900905Y80165D01*
X901002Y80126D01*
X901097Y80084D01*
X901191Y80038D01*
X901283Y79988D01*
X901373Y79936D01*
X901461Y79880D01*
X901547Y79820D01*
X901631Y79758D01*
X901712Y79693D01*
X901791Y79625D01*
X901868Y79553D01*
X901941Y79480D01*
X902013Y79403D01*
X902081Y79324D01*
X902146Y79243D01*
X902208Y79159D01*
X902268Y79073D01*
X902324Y78985D01*
X902376Y78895D01*
X902426Y78803D01*
X902472Y78709D01*
X902514Y78614D01*
X902553Y78517D01*
X902589Y78419D01*
X902621Y78319D01*
X902649Y78219D01*
X902674Y78117D01*
X902694Y78015D01*
X902712Y77912D01*
X902725Y77809D01*
X902734Y77705D01*
X902740Y77600D01*
X902742Y77496D01*
X899884Y80353D02*
X899766Y80351D01*
X899647Y80345D01*
X899529Y80336D01*
X899412Y80323D01*
X899295Y80305D01*
X899178Y80285D01*
X899062Y80260D01*
X898947Y80232D01*
X898834Y80199D01*
X898721Y80164D01*
X898609Y80124D01*
X898499Y80082D01*
X898390Y80035D01*
X898282Y79985D01*
X898177Y79932D01*
X898073Y79875D01*
X897971Y79815D01*
X897871Y79752D01*
X897773Y79685D01*
X897677Y79616D01*
X897584Y79543D01*
X897493Y79467D01*
X897404Y79389D01*
X897318Y79307D01*
X897235Y79223D01*
X897154Y79137D01*
X897077Y79047D01*
X897002Y78956D01*
X896930Y78862D01*
X896861Y78765D01*
X896796Y78667D01*
X896733Y78566D01*
X896674Y78463D01*
X896618Y78359D01*
X896566Y78253D01*
X896517Y78145D01*
X896472Y78036D01*
X896430Y77925D01*
X896392Y77813D01*
X901790Y75274D02*
X901866Y75349D01*
X901941Y75428D01*
X902012Y75509D01*
X902081Y75593D01*
X902146Y75679D01*
X902208Y75767D01*
X902268Y75857D01*
X902324Y75949D01*
X902377Y76044D01*
X902426Y76140D01*
X902472Y76238D01*
X902515Y76337D01*
X902554Y76438D01*
X902589Y76540D01*
X902621Y76643D01*
X902649Y76747D01*
X902674Y76852D01*
X902695Y76959D01*
X902712Y77065D01*
X902725Y77172D01*
X902734Y77280D01*
X902740Y77388D01*
X902742Y77496D01*
X901789Y75273D02*
X896392Y68923D01*
X902742Y68923D01*
M02*
