G04 EAGLE Gerber RS-274X export*
G75*
%MOMM*%
%FSLAX34Y34*%
%LPD*%
%INSilkscreen Bottom*%
%IPPOS*%
%AMOC8*
5,1,8,0,0,1.08239X$1,22.5*%
G01*
%ADD10C,0.050800*%
%ADD11C,0.152400*%
%ADD12C,0.025400*%


D10*
X91694Y376118D02*
X91694Y374876D01*
X91696Y374806D01*
X91702Y374737D01*
X91712Y374668D01*
X91725Y374600D01*
X91743Y374532D01*
X91764Y374466D01*
X91789Y374401D01*
X91817Y374337D01*
X91849Y374275D01*
X91884Y374215D01*
X91923Y374157D01*
X91965Y374102D01*
X92010Y374048D01*
X92058Y373998D01*
X92108Y373950D01*
X92162Y373905D01*
X92217Y373863D01*
X92275Y373824D01*
X92335Y373789D01*
X92397Y373757D01*
X92461Y373729D01*
X92526Y373704D01*
X92592Y373683D01*
X92660Y373665D01*
X92728Y373652D01*
X92797Y373642D01*
X92866Y373636D01*
X92936Y373634D01*
X96040Y373634D01*
X96110Y373636D01*
X96179Y373642D01*
X96248Y373652D01*
X96316Y373665D01*
X96384Y373683D01*
X96450Y373704D01*
X96515Y373729D01*
X96579Y373757D01*
X96641Y373789D01*
X96701Y373824D01*
X96759Y373863D01*
X96814Y373905D01*
X96868Y373950D01*
X96918Y373998D01*
X96966Y374048D01*
X97011Y374102D01*
X97053Y374157D01*
X97092Y374215D01*
X97127Y374275D01*
X97159Y374337D01*
X97187Y374401D01*
X97212Y374466D01*
X97233Y374532D01*
X97251Y374600D01*
X97264Y374668D01*
X97274Y374737D01*
X97280Y374806D01*
X97282Y374876D01*
X97282Y376118D01*
X96040Y378222D02*
X97282Y379774D01*
X91694Y379774D01*
X91694Y378222D02*
X91694Y381327D01*
X251714Y475206D02*
X251714Y476448D01*
X251714Y475206D02*
X251716Y475136D01*
X251722Y475067D01*
X251732Y474998D01*
X251745Y474930D01*
X251763Y474862D01*
X251784Y474796D01*
X251809Y474731D01*
X251837Y474667D01*
X251869Y474605D01*
X251904Y474545D01*
X251943Y474487D01*
X251985Y474432D01*
X252030Y474378D01*
X252078Y474328D01*
X252128Y474280D01*
X252182Y474235D01*
X252237Y474193D01*
X252295Y474154D01*
X252355Y474119D01*
X252417Y474087D01*
X252481Y474059D01*
X252546Y474034D01*
X252612Y474013D01*
X252680Y473995D01*
X252748Y473982D01*
X252817Y473972D01*
X252886Y473966D01*
X252956Y473964D01*
X256060Y473964D01*
X256130Y473966D01*
X256199Y473972D01*
X256268Y473982D01*
X256336Y473995D01*
X256404Y474013D01*
X256470Y474034D01*
X256535Y474059D01*
X256599Y474087D01*
X256661Y474119D01*
X256721Y474154D01*
X256779Y474193D01*
X256834Y474235D01*
X256888Y474280D01*
X256938Y474328D01*
X256986Y474378D01*
X257031Y474432D01*
X257073Y474487D01*
X257112Y474545D01*
X257147Y474605D01*
X257179Y474667D01*
X257207Y474731D01*
X257232Y474796D01*
X257253Y474862D01*
X257271Y474930D01*
X257284Y474998D01*
X257294Y475067D01*
X257300Y475136D01*
X257302Y475206D01*
X257302Y476448D01*
X257302Y480260D02*
X257300Y480333D01*
X257294Y480406D01*
X257285Y480479D01*
X257271Y480550D01*
X257254Y480622D01*
X257234Y480692D01*
X257209Y480761D01*
X257181Y480828D01*
X257150Y480894D01*
X257115Y480959D01*
X257077Y481021D01*
X257035Y481081D01*
X256991Y481139D01*
X256943Y481195D01*
X256893Y481248D01*
X256840Y481298D01*
X256784Y481346D01*
X256726Y481390D01*
X256666Y481432D01*
X256604Y481470D01*
X256539Y481505D01*
X256473Y481536D01*
X256406Y481564D01*
X256337Y481589D01*
X256267Y481609D01*
X256195Y481626D01*
X256124Y481640D01*
X256051Y481649D01*
X255978Y481655D01*
X255905Y481657D01*
X257302Y480260D02*
X257300Y480176D01*
X257294Y480093D01*
X257285Y480010D01*
X257271Y479928D01*
X257254Y479846D01*
X257232Y479765D01*
X257207Y479685D01*
X257179Y479607D01*
X257147Y479529D01*
X257111Y479454D01*
X257072Y479380D01*
X257029Y479308D01*
X256983Y479238D01*
X256934Y479171D01*
X256881Y479105D01*
X256826Y479043D01*
X256768Y478983D01*
X256707Y478925D01*
X256644Y478871D01*
X256578Y478819D01*
X256510Y478771D01*
X256439Y478726D01*
X256367Y478684D01*
X256292Y478646D01*
X256216Y478611D01*
X256139Y478580D01*
X256060Y478552D01*
X254819Y481190D02*
X254872Y481244D01*
X254929Y481295D01*
X254988Y481343D01*
X255049Y481388D01*
X255112Y481429D01*
X255178Y481468D01*
X255245Y481503D01*
X255314Y481535D01*
X255385Y481563D01*
X255456Y481587D01*
X255529Y481608D01*
X255603Y481625D01*
X255678Y481639D01*
X255753Y481648D01*
X255829Y481654D01*
X255905Y481656D01*
X254818Y481191D02*
X251714Y478552D01*
X251714Y481657D01*
X123698Y295527D02*
X123698Y294285D01*
X123700Y294215D01*
X123706Y294146D01*
X123716Y294077D01*
X123729Y294009D01*
X123747Y293941D01*
X123768Y293875D01*
X123793Y293810D01*
X123821Y293746D01*
X123853Y293684D01*
X123888Y293624D01*
X123927Y293566D01*
X123969Y293511D01*
X124014Y293457D01*
X124062Y293407D01*
X124112Y293359D01*
X124166Y293314D01*
X124221Y293272D01*
X124279Y293233D01*
X124339Y293198D01*
X124401Y293166D01*
X124465Y293138D01*
X124530Y293113D01*
X124596Y293092D01*
X124664Y293074D01*
X124732Y293061D01*
X124801Y293051D01*
X124870Y293045D01*
X124940Y293043D01*
X128044Y293043D01*
X128114Y293045D01*
X128183Y293051D01*
X128252Y293061D01*
X128320Y293074D01*
X128388Y293092D01*
X128454Y293113D01*
X128519Y293138D01*
X128583Y293166D01*
X128645Y293198D01*
X128705Y293233D01*
X128763Y293272D01*
X128818Y293314D01*
X128872Y293359D01*
X128922Y293407D01*
X128970Y293457D01*
X129015Y293511D01*
X129057Y293566D01*
X129096Y293624D01*
X129131Y293684D01*
X129163Y293746D01*
X129191Y293810D01*
X129216Y293875D01*
X129237Y293941D01*
X129255Y294009D01*
X129268Y294077D01*
X129278Y294146D01*
X129284Y294215D01*
X129286Y294285D01*
X129286Y295527D01*
X123698Y297632D02*
X123698Y299184D01*
X123700Y299261D01*
X123706Y299339D01*
X123715Y299415D01*
X123729Y299492D01*
X123746Y299567D01*
X123767Y299641D01*
X123792Y299715D01*
X123820Y299787D01*
X123852Y299857D01*
X123887Y299926D01*
X123926Y299993D01*
X123968Y300058D01*
X124013Y300121D01*
X124061Y300182D01*
X124112Y300240D01*
X124166Y300295D01*
X124223Y300348D01*
X124282Y300397D01*
X124344Y300444D01*
X124408Y300488D01*
X124474Y300528D01*
X124542Y300565D01*
X124612Y300599D01*
X124683Y300629D01*
X124756Y300655D01*
X124830Y300678D01*
X124905Y300697D01*
X124980Y300712D01*
X125057Y300724D01*
X125134Y300732D01*
X125211Y300736D01*
X125289Y300736D01*
X125366Y300732D01*
X125443Y300724D01*
X125520Y300712D01*
X125595Y300697D01*
X125670Y300678D01*
X125744Y300655D01*
X125817Y300629D01*
X125888Y300599D01*
X125958Y300565D01*
X126026Y300528D01*
X126092Y300488D01*
X126156Y300444D01*
X126218Y300397D01*
X126277Y300348D01*
X126334Y300295D01*
X126388Y300240D01*
X126439Y300182D01*
X126487Y300121D01*
X126532Y300058D01*
X126574Y299993D01*
X126613Y299926D01*
X126648Y299857D01*
X126680Y299787D01*
X126708Y299715D01*
X126733Y299641D01*
X126754Y299567D01*
X126771Y299492D01*
X126785Y299415D01*
X126794Y299339D01*
X126800Y299261D01*
X126802Y299184D01*
X129286Y299494D02*
X129286Y297632D01*
X129286Y299494D02*
X129284Y299564D01*
X129278Y299633D01*
X129268Y299702D01*
X129255Y299770D01*
X129237Y299838D01*
X129216Y299904D01*
X129191Y299969D01*
X129163Y300033D01*
X129131Y300095D01*
X129096Y300155D01*
X129057Y300213D01*
X129015Y300268D01*
X128970Y300322D01*
X128922Y300372D01*
X128872Y300420D01*
X128818Y300465D01*
X128763Y300507D01*
X128705Y300546D01*
X128645Y300581D01*
X128583Y300613D01*
X128519Y300641D01*
X128454Y300666D01*
X128388Y300687D01*
X128320Y300705D01*
X128252Y300718D01*
X128183Y300728D01*
X128114Y300734D01*
X128044Y300736D01*
X127974Y300734D01*
X127905Y300728D01*
X127836Y300718D01*
X127768Y300705D01*
X127700Y300687D01*
X127634Y300666D01*
X127569Y300641D01*
X127505Y300613D01*
X127443Y300581D01*
X127383Y300546D01*
X127325Y300507D01*
X127270Y300465D01*
X127216Y300420D01*
X127166Y300372D01*
X127118Y300322D01*
X127073Y300268D01*
X127031Y300213D01*
X126992Y300155D01*
X126957Y300095D01*
X126925Y300033D01*
X126897Y299969D01*
X126872Y299904D01*
X126851Y299838D01*
X126833Y299770D01*
X126820Y299702D01*
X126810Y299633D01*
X126804Y299564D01*
X126802Y299494D01*
X126802Y298252D01*
D11*
X217520Y348790D02*
X217520Y354790D01*
X229520Y354790D02*
X229520Y348790D01*
D12*
X215138Y353530D02*
X211328Y353530D01*
X215138Y353530D02*
X215138Y354588D01*
X215136Y354652D01*
X215130Y354716D01*
X215121Y354779D01*
X215107Y354841D01*
X215090Y354903D01*
X215069Y354963D01*
X215045Y355022D01*
X215017Y355080D01*
X214985Y355135D01*
X214951Y355189D01*
X214913Y355240D01*
X214872Y355290D01*
X214828Y355336D01*
X214782Y355380D01*
X214732Y355421D01*
X214681Y355459D01*
X214627Y355493D01*
X214572Y355525D01*
X214514Y355553D01*
X214455Y355577D01*
X214395Y355598D01*
X214333Y355615D01*
X214271Y355629D01*
X214208Y355638D01*
X214144Y355644D01*
X214080Y355646D01*
X214016Y355644D01*
X213952Y355638D01*
X213889Y355629D01*
X213827Y355615D01*
X213765Y355598D01*
X213705Y355577D01*
X213646Y355553D01*
X213588Y355525D01*
X213533Y355493D01*
X213479Y355459D01*
X213428Y355421D01*
X213378Y355380D01*
X213332Y355336D01*
X213288Y355290D01*
X213247Y355240D01*
X213209Y355189D01*
X213175Y355135D01*
X213143Y355080D01*
X213115Y355022D01*
X213091Y354963D01*
X213070Y354903D01*
X213053Y354841D01*
X213039Y354779D01*
X213030Y354716D01*
X213024Y354652D01*
X213022Y354588D01*
X213021Y354588D02*
X213021Y353530D01*
X213021Y354800D02*
X211328Y355646D01*
X214291Y357166D02*
X215138Y358225D01*
X211328Y358225D01*
X211328Y359283D02*
X211328Y357166D01*
D11*
X108300Y466900D02*
X108300Y472900D01*
X120300Y472900D02*
X120300Y466900D01*
D12*
X105918Y471640D02*
X102108Y471640D01*
X105918Y471640D02*
X105918Y472698D01*
X105916Y472762D01*
X105910Y472826D01*
X105901Y472889D01*
X105887Y472951D01*
X105870Y473013D01*
X105849Y473073D01*
X105825Y473132D01*
X105797Y473190D01*
X105765Y473245D01*
X105731Y473299D01*
X105693Y473350D01*
X105652Y473400D01*
X105608Y473446D01*
X105562Y473490D01*
X105512Y473531D01*
X105461Y473569D01*
X105407Y473603D01*
X105352Y473635D01*
X105294Y473663D01*
X105235Y473687D01*
X105175Y473708D01*
X105113Y473725D01*
X105051Y473739D01*
X104988Y473748D01*
X104924Y473754D01*
X104860Y473756D01*
X104796Y473754D01*
X104732Y473748D01*
X104669Y473739D01*
X104607Y473725D01*
X104545Y473708D01*
X104485Y473687D01*
X104426Y473663D01*
X104368Y473635D01*
X104313Y473603D01*
X104259Y473569D01*
X104208Y473531D01*
X104158Y473490D01*
X104112Y473446D01*
X104068Y473400D01*
X104027Y473350D01*
X103989Y473299D01*
X103955Y473245D01*
X103923Y473190D01*
X103895Y473132D01*
X103871Y473073D01*
X103850Y473013D01*
X103833Y472951D01*
X103819Y472889D01*
X103810Y472826D01*
X103804Y472762D01*
X103802Y472698D01*
X103801Y472698D02*
X103801Y471640D01*
X103801Y472910D02*
X102108Y473756D01*
X104966Y477394D02*
X105026Y477392D01*
X105085Y477386D01*
X105145Y477377D01*
X105203Y477364D01*
X105260Y477347D01*
X105317Y477327D01*
X105372Y477303D01*
X105425Y477276D01*
X105477Y477246D01*
X105526Y477212D01*
X105573Y477175D01*
X105618Y477136D01*
X105661Y477093D01*
X105700Y477048D01*
X105737Y477001D01*
X105771Y476952D01*
X105801Y476900D01*
X105828Y476847D01*
X105852Y476792D01*
X105872Y476735D01*
X105889Y476678D01*
X105902Y476620D01*
X105911Y476560D01*
X105917Y476501D01*
X105919Y476441D01*
X105918Y476441D02*
X105916Y476374D01*
X105911Y476307D01*
X105902Y476241D01*
X105889Y476175D01*
X105873Y476111D01*
X105853Y476047D01*
X105829Y475984D01*
X105803Y475922D01*
X105773Y475863D01*
X105740Y475805D01*
X105703Y475748D01*
X105664Y475694D01*
X105622Y475642D01*
X105577Y475593D01*
X105529Y475546D01*
X105479Y475502D01*
X105426Y475460D01*
X105371Y475422D01*
X105315Y475386D01*
X105256Y475354D01*
X105196Y475325D01*
X105134Y475299D01*
X105071Y475277D01*
X104225Y477076D02*
X104267Y477117D01*
X104312Y477156D01*
X104358Y477193D01*
X104407Y477227D01*
X104457Y477258D01*
X104509Y477285D01*
X104563Y477310D01*
X104618Y477332D01*
X104674Y477351D01*
X104731Y477366D01*
X104789Y477378D01*
X104848Y477386D01*
X104907Y477391D01*
X104966Y477393D01*
X104225Y477076D02*
X102108Y475276D01*
X102108Y477393D01*
D11*
X70200Y455120D02*
X70200Y449120D01*
X82200Y449120D02*
X82200Y455120D01*
D12*
X67818Y453860D02*
X64008Y453860D01*
X67818Y453860D02*
X67818Y454918D01*
X67816Y454982D01*
X67810Y455046D01*
X67801Y455109D01*
X67787Y455171D01*
X67770Y455233D01*
X67749Y455293D01*
X67725Y455352D01*
X67697Y455410D01*
X67665Y455465D01*
X67631Y455519D01*
X67593Y455570D01*
X67552Y455620D01*
X67508Y455666D01*
X67462Y455710D01*
X67412Y455751D01*
X67361Y455789D01*
X67307Y455823D01*
X67252Y455855D01*
X67194Y455883D01*
X67135Y455907D01*
X67075Y455928D01*
X67013Y455945D01*
X66951Y455959D01*
X66888Y455968D01*
X66824Y455974D01*
X66760Y455976D01*
X66696Y455974D01*
X66632Y455968D01*
X66569Y455959D01*
X66507Y455945D01*
X66445Y455928D01*
X66385Y455907D01*
X66326Y455883D01*
X66268Y455855D01*
X66213Y455823D01*
X66159Y455789D01*
X66108Y455751D01*
X66058Y455710D01*
X66012Y455666D01*
X65968Y455620D01*
X65927Y455570D01*
X65889Y455519D01*
X65855Y455465D01*
X65823Y455410D01*
X65795Y455352D01*
X65771Y455293D01*
X65750Y455233D01*
X65733Y455171D01*
X65719Y455109D01*
X65710Y455046D01*
X65704Y454982D01*
X65702Y454918D01*
X65701Y454918D02*
X65701Y453860D01*
X65701Y455130D02*
X64008Y455976D01*
X64008Y457496D02*
X64008Y458555D01*
X64010Y458619D01*
X64016Y458683D01*
X64025Y458746D01*
X64039Y458808D01*
X64056Y458870D01*
X64077Y458930D01*
X64101Y458989D01*
X64129Y459047D01*
X64161Y459102D01*
X64195Y459156D01*
X64233Y459207D01*
X64274Y459257D01*
X64318Y459303D01*
X64364Y459347D01*
X64414Y459388D01*
X64465Y459426D01*
X64519Y459460D01*
X64574Y459492D01*
X64632Y459520D01*
X64691Y459544D01*
X64751Y459565D01*
X64813Y459582D01*
X64875Y459596D01*
X64938Y459605D01*
X65002Y459611D01*
X65066Y459613D01*
X65130Y459611D01*
X65194Y459605D01*
X65257Y459596D01*
X65319Y459582D01*
X65381Y459565D01*
X65441Y459544D01*
X65500Y459520D01*
X65558Y459492D01*
X65613Y459460D01*
X65667Y459426D01*
X65718Y459388D01*
X65768Y459347D01*
X65814Y459303D01*
X65858Y459257D01*
X65899Y459207D01*
X65937Y459156D01*
X65971Y459102D01*
X66003Y459047D01*
X66031Y458989D01*
X66055Y458930D01*
X66076Y458870D01*
X66093Y458808D01*
X66107Y458746D01*
X66116Y458683D01*
X66122Y458619D01*
X66124Y458555D01*
X67818Y458766D02*
X67818Y457496D01*
X67818Y458766D02*
X67816Y458823D01*
X67810Y458879D01*
X67801Y458935D01*
X67788Y458990D01*
X67771Y459044D01*
X67751Y459097D01*
X67727Y459148D01*
X67700Y459198D01*
X67669Y459245D01*
X67636Y459291D01*
X67599Y459334D01*
X67560Y459375D01*
X67518Y459413D01*
X67473Y459448D01*
X67427Y459480D01*
X67378Y459509D01*
X67328Y459534D01*
X67275Y459556D01*
X67222Y459575D01*
X67167Y459590D01*
X67112Y459601D01*
X67056Y459609D01*
X66999Y459613D01*
X66943Y459613D01*
X66886Y459609D01*
X66830Y459601D01*
X66775Y459590D01*
X66720Y459575D01*
X66667Y459556D01*
X66614Y459534D01*
X66564Y459509D01*
X66515Y459480D01*
X66469Y459448D01*
X66424Y459413D01*
X66382Y459375D01*
X66343Y459334D01*
X66306Y459291D01*
X66273Y459245D01*
X66242Y459198D01*
X66215Y459148D01*
X66191Y459097D01*
X66171Y459044D01*
X66154Y458990D01*
X66141Y458935D01*
X66132Y458879D01*
X66126Y458823D01*
X66124Y458766D01*
X66125Y458766D02*
X66125Y457920D01*
D11*
X166020Y215090D02*
X166020Y209090D01*
X154020Y209090D02*
X154020Y215090D01*
D12*
X168402Y204597D02*
X172212Y204597D01*
X172212Y205655D01*
X172210Y205719D01*
X172204Y205783D01*
X172195Y205846D01*
X172181Y205908D01*
X172164Y205970D01*
X172143Y206030D01*
X172119Y206089D01*
X172091Y206147D01*
X172059Y206202D01*
X172025Y206256D01*
X171987Y206307D01*
X171946Y206357D01*
X171902Y206403D01*
X171856Y206447D01*
X171806Y206488D01*
X171755Y206526D01*
X171701Y206560D01*
X171646Y206592D01*
X171588Y206620D01*
X171529Y206644D01*
X171469Y206665D01*
X171407Y206682D01*
X171345Y206696D01*
X171282Y206705D01*
X171218Y206711D01*
X171154Y206713D01*
X171090Y206711D01*
X171026Y206705D01*
X170963Y206696D01*
X170901Y206682D01*
X170839Y206665D01*
X170779Y206644D01*
X170720Y206620D01*
X170662Y206592D01*
X170607Y206560D01*
X170553Y206526D01*
X170502Y206488D01*
X170452Y206447D01*
X170406Y206403D01*
X170362Y206357D01*
X170321Y206307D01*
X170283Y206256D01*
X170249Y206202D01*
X170217Y206147D01*
X170189Y206089D01*
X170165Y206030D01*
X170144Y205970D01*
X170127Y205908D01*
X170113Y205846D01*
X170104Y205783D01*
X170098Y205719D01*
X170096Y205655D01*
X170095Y205655D02*
X170095Y204597D01*
X170095Y205867D02*
X168402Y206714D01*
X169249Y208234D02*
X172212Y209080D01*
X169249Y208234D02*
X169249Y210350D01*
X170095Y209715D02*
X168402Y209715D01*
D11*
X251810Y214170D02*
X251810Y220170D01*
X263810Y220170D02*
X263810Y214170D01*
D12*
X249428Y218910D02*
X245618Y218910D01*
X249428Y218910D02*
X249428Y219968D01*
X249426Y220032D01*
X249420Y220096D01*
X249411Y220159D01*
X249397Y220221D01*
X249380Y220283D01*
X249359Y220343D01*
X249335Y220402D01*
X249307Y220460D01*
X249275Y220515D01*
X249241Y220569D01*
X249203Y220620D01*
X249162Y220670D01*
X249118Y220716D01*
X249072Y220760D01*
X249022Y220801D01*
X248971Y220839D01*
X248917Y220873D01*
X248862Y220905D01*
X248804Y220933D01*
X248745Y220957D01*
X248685Y220978D01*
X248623Y220995D01*
X248561Y221009D01*
X248498Y221018D01*
X248434Y221024D01*
X248370Y221026D01*
X248306Y221024D01*
X248242Y221018D01*
X248179Y221009D01*
X248117Y220995D01*
X248055Y220978D01*
X247995Y220957D01*
X247936Y220933D01*
X247878Y220905D01*
X247823Y220873D01*
X247769Y220839D01*
X247718Y220801D01*
X247668Y220760D01*
X247622Y220716D01*
X247578Y220670D01*
X247537Y220620D01*
X247499Y220569D01*
X247465Y220515D01*
X247433Y220460D01*
X247405Y220402D01*
X247381Y220343D01*
X247360Y220283D01*
X247343Y220221D01*
X247329Y220159D01*
X247320Y220096D01*
X247314Y220032D01*
X247312Y219968D01*
X247311Y219968D02*
X247311Y218910D01*
X247311Y220180D02*
X245618Y221026D01*
X245618Y222546D02*
X245618Y223816D01*
X245620Y223871D01*
X245625Y223927D01*
X245634Y223981D01*
X245647Y224035D01*
X245663Y224088D01*
X245682Y224140D01*
X245705Y224191D01*
X245731Y224240D01*
X245761Y224287D01*
X245793Y224332D01*
X245828Y224374D01*
X245866Y224415D01*
X245907Y224453D01*
X245949Y224488D01*
X245994Y224520D01*
X246042Y224550D01*
X246090Y224576D01*
X246141Y224599D01*
X246193Y224618D01*
X246246Y224634D01*
X246300Y224647D01*
X246354Y224656D01*
X246410Y224661D01*
X246465Y224663D01*
X246888Y224663D01*
X246943Y224661D01*
X246999Y224656D01*
X247053Y224647D01*
X247107Y224634D01*
X247160Y224618D01*
X247212Y224599D01*
X247263Y224576D01*
X247312Y224550D01*
X247359Y224520D01*
X247404Y224488D01*
X247446Y224453D01*
X247487Y224415D01*
X247525Y224374D01*
X247560Y224332D01*
X247592Y224287D01*
X247622Y224240D01*
X247648Y224191D01*
X247671Y224140D01*
X247690Y224088D01*
X247706Y224035D01*
X247719Y223981D01*
X247728Y223927D01*
X247733Y223871D01*
X247735Y223816D01*
X247735Y222546D01*
X249428Y222546D01*
X249428Y224663D01*
D10*
X415798Y193927D02*
X415798Y192685D01*
X415800Y192615D01*
X415806Y192546D01*
X415816Y192477D01*
X415829Y192409D01*
X415847Y192341D01*
X415868Y192275D01*
X415893Y192210D01*
X415921Y192146D01*
X415953Y192084D01*
X415988Y192024D01*
X416027Y191966D01*
X416069Y191911D01*
X416114Y191857D01*
X416162Y191807D01*
X416212Y191759D01*
X416266Y191714D01*
X416321Y191672D01*
X416379Y191633D01*
X416439Y191598D01*
X416501Y191566D01*
X416565Y191538D01*
X416630Y191513D01*
X416696Y191492D01*
X416764Y191474D01*
X416832Y191461D01*
X416901Y191451D01*
X416970Y191445D01*
X417040Y191443D01*
X420144Y191443D01*
X420214Y191445D01*
X420283Y191451D01*
X420352Y191461D01*
X420420Y191474D01*
X420488Y191492D01*
X420554Y191513D01*
X420619Y191538D01*
X420683Y191566D01*
X420745Y191598D01*
X420805Y191633D01*
X420863Y191672D01*
X420918Y191714D01*
X420972Y191759D01*
X421022Y191807D01*
X421070Y191857D01*
X421115Y191911D01*
X421157Y191966D01*
X421196Y192024D01*
X421231Y192084D01*
X421263Y192146D01*
X421291Y192210D01*
X421316Y192275D01*
X421337Y192341D01*
X421355Y192409D01*
X421368Y192477D01*
X421378Y192546D01*
X421384Y192615D01*
X421386Y192685D01*
X421386Y193927D01*
X421386Y197273D02*
X417040Y196032D01*
X417040Y199136D01*
X418282Y198205D02*
X415798Y198205D01*
X608584Y364716D02*
X608584Y365958D01*
X608584Y364716D02*
X608586Y364646D01*
X608592Y364577D01*
X608602Y364508D01*
X608615Y364440D01*
X608633Y364372D01*
X608654Y364306D01*
X608679Y364241D01*
X608707Y364177D01*
X608739Y364115D01*
X608774Y364055D01*
X608813Y363997D01*
X608855Y363942D01*
X608900Y363888D01*
X608948Y363838D01*
X608998Y363790D01*
X609052Y363745D01*
X609107Y363703D01*
X609165Y363664D01*
X609225Y363629D01*
X609287Y363597D01*
X609351Y363569D01*
X609416Y363544D01*
X609482Y363523D01*
X609550Y363505D01*
X609618Y363492D01*
X609687Y363482D01*
X609756Y363476D01*
X609826Y363474D01*
X612930Y363474D01*
X613000Y363476D01*
X613069Y363482D01*
X613138Y363492D01*
X613206Y363505D01*
X613274Y363523D01*
X613340Y363544D01*
X613405Y363569D01*
X613469Y363597D01*
X613531Y363629D01*
X613591Y363664D01*
X613649Y363703D01*
X613704Y363745D01*
X613758Y363790D01*
X613808Y363838D01*
X613856Y363888D01*
X613901Y363942D01*
X613943Y363997D01*
X613982Y364055D01*
X614017Y364115D01*
X614049Y364177D01*
X614077Y364241D01*
X614102Y364306D01*
X614123Y364372D01*
X614141Y364440D01*
X614154Y364508D01*
X614164Y364577D01*
X614170Y364646D01*
X614172Y364716D01*
X614172Y365958D01*
X608584Y368062D02*
X608584Y369925D01*
X608586Y369995D01*
X608592Y370064D01*
X608602Y370133D01*
X608615Y370201D01*
X608633Y370269D01*
X608654Y370335D01*
X608679Y370400D01*
X608707Y370464D01*
X608739Y370526D01*
X608774Y370586D01*
X608813Y370644D01*
X608855Y370699D01*
X608900Y370753D01*
X608948Y370803D01*
X608998Y370851D01*
X609052Y370896D01*
X609107Y370938D01*
X609165Y370977D01*
X609225Y371012D01*
X609287Y371044D01*
X609351Y371072D01*
X609416Y371097D01*
X609482Y371118D01*
X609550Y371136D01*
X609618Y371149D01*
X609687Y371159D01*
X609756Y371165D01*
X609826Y371167D01*
X610447Y371167D01*
X610517Y371165D01*
X610586Y371159D01*
X610655Y371149D01*
X610723Y371136D01*
X610791Y371118D01*
X610857Y371097D01*
X610922Y371072D01*
X610986Y371044D01*
X611048Y371012D01*
X611108Y370977D01*
X611166Y370938D01*
X611221Y370896D01*
X611275Y370851D01*
X611325Y370803D01*
X611373Y370753D01*
X611418Y370699D01*
X611460Y370644D01*
X611499Y370586D01*
X611534Y370526D01*
X611566Y370464D01*
X611594Y370400D01*
X611619Y370335D01*
X611640Y370269D01*
X611658Y370201D01*
X611671Y370133D01*
X611681Y370064D01*
X611687Y369995D01*
X611689Y369925D01*
X611688Y369925D02*
X611688Y368062D01*
X614172Y368062D01*
X614172Y371167D01*
D11*
X493110Y192230D02*
X493110Y186230D01*
X505110Y186230D02*
X505110Y192230D01*
D12*
X490728Y178270D02*
X486918Y178270D01*
X490728Y178270D02*
X490728Y179328D01*
X490726Y179392D01*
X490720Y179456D01*
X490711Y179519D01*
X490697Y179581D01*
X490680Y179643D01*
X490659Y179703D01*
X490635Y179762D01*
X490607Y179820D01*
X490575Y179875D01*
X490541Y179929D01*
X490503Y179980D01*
X490462Y180030D01*
X490418Y180076D01*
X490372Y180120D01*
X490322Y180161D01*
X490271Y180199D01*
X490217Y180233D01*
X490162Y180265D01*
X490104Y180293D01*
X490045Y180317D01*
X489985Y180338D01*
X489923Y180355D01*
X489861Y180369D01*
X489798Y180378D01*
X489734Y180384D01*
X489670Y180386D01*
X489606Y180384D01*
X489542Y180378D01*
X489479Y180369D01*
X489417Y180355D01*
X489355Y180338D01*
X489295Y180317D01*
X489236Y180293D01*
X489178Y180265D01*
X489123Y180233D01*
X489069Y180199D01*
X489018Y180161D01*
X488968Y180120D01*
X488922Y180076D01*
X488878Y180030D01*
X488837Y179980D01*
X488799Y179929D01*
X488765Y179875D01*
X488733Y179820D01*
X488705Y179762D01*
X488681Y179703D01*
X488660Y179643D01*
X488643Y179581D01*
X488629Y179519D01*
X488620Y179456D01*
X488614Y179392D01*
X488612Y179328D01*
X488611Y179328D02*
X488611Y178270D01*
X488611Y179540D02*
X486918Y180386D01*
X489035Y181906D02*
X489035Y183176D01*
X489033Y183231D01*
X489028Y183287D01*
X489019Y183341D01*
X489006Y183395D01*
X488990Y183448D01*
X488971Y183500D01*
X488948Y183551D01*
X488922Y183600D01*
X488892Y183647D01*
X488860Y183692D01*
X488825Y183734D01*
X488787Y183775D01*
X488746Y183813D01*
X488704Y183848D01*
X488659Y183880D01*
X488612Y183910D01*
X488563Y183936D01*
X488512Y183959D01*
X488460Y183978D01*
X488407Y183994D01*
X488353Y184007D01*
X488299Y184016D01*
X488243Y184021D01*
X488188Y184023D01*
X487976Y184023D01*
X487912Y184021D01*
X487848Y184015D01*
X487785Y184006D01*
X487723Y183992D01*
X487661Y183975D01*
X487601Y183954D01*
X487542Y183930D01*
X487484Y183902D01*
X487429Y183870D01*
X487375Y183836D01*
X487324Y183798D01*
X487274Y183757D01*
X487228Y183713D01*
X487184Y183667D01*
X487143Y183617D01*
X487105Y183566D01*
X487071Y183512D01*
X487039Y183457D01*
X487011Y183399D01*
X486987Y183340D01*
X486966Y183280D01*
X486949Y183218D01*
X486935Y183156D01*
X486926Y183093D01*
X486920Y183029D01*
X486918Y182965D01*
X486920Y182901D01*
X486926Y182837D01*
X486935Y182774D01*
X486949Y182712D01*
X486966Y182650D01*
X486987Y182590D01*
X487011Y182531D01*
X487039Y182473D01*
X487071Y182418D01*
X487105Y182364D01*
X487143Y182313D01*
X487184Y182263D01*
X487228Y182217D01*
X487274Y182173D01*
X487324Y182132D01*
X487375Y182094D01*
X487429Y182060D01*
X487484Y182028D01*
X487542Y182000D01*
X487601Y181976D01*
X487661Y181955D01*
X487723Y181938D01*
X487785Y181924D01*
X487848Y181915D01*
X487912Y181909D01*
X487976Y181907D01*
X487976Y181906D02*
X489035Y181906D01*
X489035Y181907D02*
X489116Y181909D01*
X489196Y181915D01*
X489276Y181924D01*
X489355Y181938D01*
X489434Y181955D01*
X489512Y181976D01*
X489589Y182000D01*
X489664Y182028D01*
X489738Y182060D01*
X489811Y182095D01*
X489881Y182134D01*
X489950Y182176D01*
X490017Y182221D01*
X490082Y182269D01*
X490144Y182321D01*
X490203Y182375D01*
X490260Y182432D01*
X490314Y182491D01*
X490366Y182553D01*
X490414Y182618D01*
X490459Y182685D01*
X490501Y182753D01*
X490540Y182824D01*
X490575Y182897D01*
X490607Y182971D01*
X490635Y183046D01*
X490659Y183123D01*
X490680Y183201D01*
X490697Y183280D01*
X490711Y183359D01*
X490720Y183439D01*
X490726Y183519D01*
X490728Y183600D01*
D11*
X710850Y249730D02*
X710850Y255730D01*
X698850Y255730D02*
X698850Y249730D01*
D12*
X713232Y245237D02*
X717042Y245237D01*
X717042Y246295D01*
X717040Y246359D01*
X717034Y246423D01*
X717025Y246486D01*
X717011Y246548D01*
X716994Y246610D01*
X716973Y246670D01*
X716949Y246729D01*
X716921Y246787D01*
X716889Y246842D01*
X716855Y246896D01*
X716817Y246947D01*
X716776Y246997D01*
X716732Y247043D01*
X716686Y247087D01*
X716636Y247128D01*
X716585Y247166D01*
X716531Y247200D01*
X716476Y247232D01*
X716418Y247260D01*
X716359Y247284D01*
X716299Y247305D01*
X716237Y247322D01*
X716175Y247336D01*
X716112Y247345D01*
X716048Y247351D01*
X715984Y247353D01*
X715920Y247351D01*
X715856Y247345D01*
X715793Y247336D01*
X715731Y247322D01*
X715669Y247305D01*
X715609Y247284D01*
X715550Y247260D01*
X715492Y247232D01*
X715437Y247200D01*
X715383Y247166D01*
X715332Y247128D01*
X715282Y247087D01*
X715236Y247043D01*
X715192Y246997D01*
X715151Y246947D01*
X715113Y246896D01*
X715079Y246842D01*
X715047Y246787D01*
X715019Y246729D01*
X714995Y246670D01*
X714974Y246610D01*
X714957Y246548D01*
X714943Y246486D01*
X714934Y246423D01*
X714928Y246359D01*
X714926Y246295D01*
X714925Y246295D02*
X714925Y245237D01*
X714925Y246507D02*
X713232Y247354D01*
X716619Y248874D02*
X717042Y248874D01*
X717042Y250990D01*
X713232Y249932D01*
D11*
X665940Y357220D02*
X659940Y357220D01*
X659940Y369220D02*
X665940Y369220D01*
D12*
X661200Y354838D02*
X661200Y351028D01*
X661200Y354838D02*
X660142Y354838D01*
X660078Y354836D01*
X660014Y354830D01*
X659951Y354821D01*
X659889Y354807D01*
X659827Y354790D01*
X659767Y354769D01*
X659708Y354745D01*
X659650Y354717D01*
X659595Y354685D01*
X659541Y354651D01*
X659490Y354613D01*
X659440Y354572D01*
X659394Y354528D01*
X659350Y354482D01*
X659309Y354432D01*
X659271Y354381D01*
X659237Y354327D01*
X659205Y354272D01*
X659177Y354214D01*
X659153Y354155D01*
X659132Y354095D01*
X659115Y354033D01*
X659101Y353971D01*
X659092Y353908D01*
X659086Y353844D01*
X659084Y353780D01*
X659086Y353716D01*
X659092Y353652D01*
X659101Y353589D01*
X659115Y353527D01*
X659132Y353465D01*
X659153Y353405D01*
X659177Y353346D01*
X659205Y353288D01*
X659237Y353233D01*
X659271Y353179D01*
X659309Y353128D01*
X659350Y353078D01*
X659394Y353032D01*
X659440Y352988D01*
X659490Y352947D01*
X659541Y352909D01*
X659595Y352875D01*
X659650Y352843D01*
X659708Y352815D01*
X659767Y352791D01*
X659827Y352770D01*
X659889Y352753D01*
X659951Y352739D01*
X660014Y352730D01*
X660078Y352724D01*
X660142Y352722D01*
X660142Y352721D02*
X661200Y352721D01*
X659930Y352721D02*
X659084Y351028D01*
X656717Y352721D02*
X655447Y352721D01*
X656717Y352721D02*
X656772Y352723D01*
X656828Y352728D01*
X656882Y352737D01*
X656936Y352750D01*
X656989Y352766D01*
X657041Y352785D01*
X657092Y352808D01*
X657141Y352834D01*
X657188Y352864D01*
X657233Y352896D01*
X657275Y352931D01*
X657316Y352969D01*
X657354Y353010D01*
X657389Y353052D01*
X657421Y353097D01*
X657451Y353145D01*
X657477Y353193D01*
X657500Y353244D01*
X657519Y353296D01*
X657535Y353349D01*
X657548Y353403D01*
X657557Y353457D01*
X657562Y353513D01*
X657564Y353568D01*
X657564Y353780D01*
X657563Y353780D02*
X657561Y353844D01*
X657555Y353908D01*
X657546Y353971D01*
X657532Y354033D01*
X657515Y354095D01*
X657494Y354155D01*
X657470Y354214D01*
X657442Y354272D01*
X657410Y354327D01*
X657376Y354381D01*
X657338Y354432D01*
X657297Y354482D01*
X657253Y354528D01*
X657207Y354572D01*
X657157Y354613D01*
X657106Y354651D01*
X657052Y354685D01*
X656997Y354717D01*
X656939Y354745D01*
X656880Y354769D01*
X656820Y354790D01*
X656758Y354807D01*
X656696Y354821D01*
X656633Y354830D01*
X656569Y354836D01*
X656505Y354838D01*
X656441Y354836D01*
X656377Y354830D01*
X656314Y354821D01*
X656252Y354807D01*
X656190Y354790D01*
X656130Y354769D01*
X656071Y354745D01*
X656013Y354717D01*
X655958Y354685D01*
X655904Y354651D01*
X655853Y354613D01*
X655803Y354572D01*
X655757Y354528D01*
X655713Y354482D01*
X655672Y354432D01*
X655634Y354381D01*
X655600Y354327D01*
X655568Y354272D01*
X655540Y354214D01*
X655516Y354155D01*
X655495Y354095D01*
X655478Y354033D01*
X655464Y353971D01*
X655455Y353908D01*
X655449Y353844D01*
X655447Y353780D01*
X655447Y352721D01*
X655449Y352640D01*
X655455Y352560D01*
X655464Y352480D01*
X655478Y352401D01*
X655495Y352322D01*
X655516Y352244D01*
X655540Y352167D01*
X655568Y352092D01*
X655600Y352018D01*
X655635Y351945D01*
X655674Y351874D01*
X655716Y351806D01*
X655761Y351739D01*
X655809Y351674D01*
X655861Y351612D01*
X655915Y351553D01*
X655972Y351496D01*
X656031Y351442D01*
X656093Y351390D01*
X656158Y351342D01*
X656225Y351297D01*
X656294Y351255D01*
X656364Y351216D01*
X656437Y351181D01*
X656511Y351149D01*
X656586Y351121D01*
X656663Y351097D01*
X656741Y351076D01*
X656820Y351059D01*
X656899Y351045D01*
X656979Y351036D01*
X657059Y351030D01*
X657140Y351028D01*
M02*
