M48
;GenerationSoftware,Autodesk,EAGLE,9.5.2*%
;CreationDate,2020-02-16T00:08:31Z*%
FMAT,2
ICI,OFF
METRIC,TZ,000.000
T6C0.800
T5C0.813
T4C0.850
T3C1.016
T2C1.200
T1C3.000
%
G90
M71
T1
X2540Y2540
X97460Y2540
X97460Y72460
X2540Y72460
T2
X52959Y38100
X52959Y35382
X88519Y28397
X88519Y31115
X88519Y33833
X52959Y40818
T3
X47280Y5000
X12540Y5000
X49820Y5000
X54900Y5000
X57440Y5000
X59980Y5000
X90000Y5000
X92540Y5000
X10000Y5000
X37541Y24409
X31039Y24409
X37541Y28931
X31039Y28931
X52360Y5000
X42200Y5000
X44740Y5000
T4
X72650Y38031
X73350Y36531
X72650Y35031
T5
X16000Y12730
X16000Y15270
X50000Y15270
X50000Y12730
X70538Y14762
X70538Y12222
T6
X11430Y34290
X16510Y34290
X19050Y34290
X19050Y41910
X16510Y41910
X13970Y41910
X11430Y41910
X15240Y60960
X20320Y60960
X17780Y60960
X13970Y34290
M30